<mxfile host="app.diagrams.net" modified="2021-05-03T14:19:16.989Z" agent="5.0 (Windows NT 10.0; Win64; x64) AppleWebKit/537.36 (KHTML, like Gecko) Chrome/90.0.4430.93 Safari/537.36 Edg/90.0.818.51" etag="xpXQq3GEqMFaxTO9g-iG" version="14.6.9" type="github">
  <diagram id="wwCAANDLWHimSi5o6hr7" name="第 1 页">
    <mxGraphModel dx="1422" dy="762" grid="1" gridSize="10" guides="1" tooltips="1" connect="1" arrows="1" fold="1" page="1" pageScale="1" pageWidth="827" pageHeight="1169" math="0" shadow="0">
      <root>
        <mxCell id="0" />
        <mxCell id="1" parent="0" />
        <mxCell id="8jCZp9VK_VzVUnB_cPQP-1" style="edgeStyle=orthogonalEdgeStyle;rounded=0;orthogonalLoop=1;jettySize=auto;html=1;exitX=0.5;exitY=1;exitDx=0;exitDy=0;exitPerimeter=0;" edge="1" parent="1" source="8jCZp9VK_VzVUnB_cPQP-2" target="8jCZp9VK_VzVUnB_cPQP-4">
          <mxGeometry relative="1" as="geometry" />
        </mxCell>
        <mxCell id="8jCZp9VK_VzVUnB_cPQP-2" value="开始" style="strokeWidth=2;html=1;shape=mxgraph.flowchart.start_1;whiteSpace=wrap;" vertex="1" parent="1">
          <mxGeometry x="363" y="20.5" width="100" height="60" as="geometry" />
        </mxCell>
        <mxCell id="8jCZp9VK_VzVUnB_cPQP-3" style="edgeStyle=orthogonalEdgeStyle;rounded=0;orthogonalLoop=1;jettySize=auto;html=1;exitX=0.5;exitY=1;exitDx=0;exitDy=0;entryX=0.5;entryY=0;entryDx=0;entryDy=0;" edge="1" parent="1" source="8jCZp9VK_VzVUnB_cPQP-4" target="8jCZp9VK_VzVUnB_cPQP-7">
          <mxGeometry relative="1" as="geometry">
            <mxPoint x="413" y="282.6666564941406" as="targetPoint" />
          </mxGeometry>
        </mxCell>
        <mxCell id="8jCZp9VK_VzVUnB_cPQP-4" value="生成一个1-3的随机数" style="rounded=1;whiteSpace=wrap;html=1;absoluteArcSize=1;arcSize=14;strokeWidth=2;" vertex="1" parent="1">
          <mxGeometry x="363" y="126" width="100" height="100" as="geometry" />
        </mxCell>
        <mxCell id="8jCZp9VK_VzVUnB_cPQP-5" style="rounded=0;orthogonalLoop=1;jettySize=auto;html=1;exitX=1;exitY=0.5;exitDx=0;exitDy=0;" edge="1" parent="1" source="8jCZp9VK_VzVUnB_cPQP-7" target="8jCZp9VK_VzVUnB_cPQP-15">
          <mxGeometry relative="1" as="geometry" />
        </mxCell>
        <mxCell id="8jCZp9VK_VzVUnB_cPQP-6" value="" style="edgeStyle=none;rounded=0;orthogonalLoop=1;jettySize=auto;html=1;" edge="1" parent="1" source="8jCZp9VK_VzVUnB_cPQP-7" target="8jCZp9VK_VzVUnB_cPQP-9">
          <mxGeometry relative="1" as="geometry" />
        </mxCell>
        <mxCell id="8jCZp9VK_VzVUnB_cPQP-7" value="根据该随机数的值决定生成哪种类型的图灵验证码" style="rounded=1;whiteSpace=wrap;html=1;absoluteArcSize=1;arcSize=14;strokeWidth=2;" vertex="1" parent="1">
          <mxGeometry x="363" y="271.5" width="100" height="100" as="geometry" />
        </mxCell>
        <mxCell id="8jCZp9VK_VzVUnB_cPQP-8" value="" style="edgeStyle=none;rounded=0;orthogonalLoop=1;jettySize=auto;html=1;" edge="1" parent="1" source="8jCZp9VK_VzVUnB_cPQP-9" target="8jCZp9VK_VzVUnB_cPQP-12">
          <mxGeometry relative="1" as="geometry" />
        </mxCell>
        <mxCell id="8jCZp9VK_VzVUnB_cPQP-9" value="创建验证码" style="rounded=1;whiteSpace=wrap;html=1;absoluteArcSize=1;arcSize=14;strokeWidth=2;" vertex="1" parent="1">
          <mxGeometry x="363" y="417" width="100" height="100" as="geometry" />
        </mxCell>
        <mxCell id="8jCZp9VK_VzVUnB_cPQP-10" style="edgeStyle=none;rounded=0;orthogonalLoop=1;jettySize=auto;html=1;exitX=1;exitY=0.5;exitDx=0;exitDy=0;" edge="1" parent="1" source="8jCZp9VK_VzVUnB_cPQP-12" target="8jCZp9VK_VzVUnB_cPQP-16">
          <mxGeometry relative="1" as="geometry" />
        </mxCell>
        <mxCell id="8jCZp9VK_VzVUnB_cPQP-11" value="" style="edgeStyle=none;rounded=0;orthogonalLoop=1;jettySize=auto;html=1;" edge="1" parent="1" source="8jCZp9VK_VzVUnB_cPQP-12" target="8jCZp9VK_VzVUnB_cPQP-14">
          <mxGeometry relative="1" as="geometry" />
        </mxCell>
        <mxCell id="8jCZp9VK_VzVUnB_cPQP-12" value="从Cookie中获取Captcha Key" style="rounded=1;whiteSpace=wrap;html=1;absoluteArcSize=1;arcSize=14;strokeWidth=2;" vertex="1" parent="1">
          <mxGeometry x="363" y="562.5" width="100" height="100" as="geometry" />
        </mxCell>
        <mxCell id="8jCZp9VK_VzVUnB_cPQP-13" style="edgeStyle=orthogonalEdgeStyle;rounded=0;orthogonalLoop=1;jettySize=auto;html=1;exitX=0.5;exitY=1;exitDx=0;exitDy=0;entryX=0.5;entryY=0;entryDx=0;entryDy=0;entryPerimeter=0;" edge="1" parent="1" source="8jCZp9VK_VzVUnB_cPQP-14" target="8jCZp9VK_VzVUnB_cPQP-19">
          <mxGeometry relative="1" as="geometry" />
        </mxCell>
        <mxCell id="8jCZp9VK_VzVUnB_cPQP-14" value="从Cookie中获取Captcha Key" style="rounded=1;whiteSpace=wrap;html=1;absoluteArcSize=1;arcSize=14;strokeWidth=2;" vertex="1" parent="1">
          <mxGeometry x="363" y="708" width="100" height="100" as="geometry" />
        </mxCell>
        <mxCell id="8jCZp9VK_VzVUnB_cPQP-15" value="0：默认类型（数字+字母）&lt;br&gt;1：数字类型&lt;br&gt;2：字母类型&lt;br&gt;3：四则运算类型" style="strokeWidth=2;html=1;shape=mxgraph.flowchart.document2;whiteSpace=wrap;size=0.25;align=left;" vertex="1" parent="1">
          <mxGeometry x="531.5" y="274" width="159" height="95" as="geometry" />
        </mxCell>
        <mxCell id="8jCZp9VK_VzVUnB_cPQP-16" value="Captcha Key将被保存在Cookie中，用于根据该key找到对应用户的验证码内容，并根据该key保证同一个用户只会在Redis中生成一次验证码内容。" style="strokeWidth=2;html=1;shape=mxgraph.flowchart.document2;whiteSpace=wrap;size=0.25;align=left;" vertex="1" parent="1">
          <mxGeometry x="532" y="562.5" width="158" height="108" as="geometry" />
        </mxCell>
        <mxCell id="8jCZp9VK_VzVUnB_cPQP-17" style="edgeStyle=orthogonalEdgeStyle;rounded=0;orthogonalLoop=1;jettySize=auto;html=1;exitX=0.5;exitY=1;exitDx=0;exitDy=0;exitPerimeter=0;" edge="1" parent="1" source="8jCZp9VK_VzVUnB_cPQP-19">
          <mxGeometry relative="1" as="geometry">
            <mxPoint x="413" y="999" as="targetPoint" />
          </mxGeometry>
        </mxCell>
        <mxCell id="8jCZp9VK_VzVUnB_cPQP-18" style="edgeStyle=orthogonalEdgeStyle;rounded=0;orthogonalLoop=1;jettySize=auto;html=1;exitX=1;exitY=0.5;exitDx=0;exitDy=0;exitPerimeter=0;" edge="1" parent="1" source="8jCZp9VK_VzVUnB_cPQP-19" target="8jCZp9VK_VzVUnB_cPQP-22">
          <mxGeometry relative="1" as="geometry" />
        </mxCell>
        <mxCell id="8jCZp9VK_VzVUnB_cPQP-19" value="是否为空？" style="strokeWidth=2;html=1;shape=mxgraph.flowchart.decision;whiteSpace=wrap;" vertex="1" parent="1">
          <mxGeometry x="363" y="853.5" width="100" height="100" as="geometry" />
        </mxCell>
        <mxCell id="8jCZp9VK_VzVUnB_cPQP-20" value="否" style="text;html=1;resizable=0;points=[];autosize=1;align=left;verticalAlign=top;spacingTop=-4;" vertex="1" parent="1">
          <mxGeometry x="413" y="966" width="22" height="14" as="geometry" />
        </mxCell>
        <mxCell id="8jCZp9VK_VzVUnB_cPQP-21" style="edgeStyle=orthogonalEdgeStyle;rounded=0;orthogonalLoop=1;jettySize=auto;html=1;" edge="1" parent="1" target="8jCZp9VK_VzVUnB_cPQP-25">
          <mxGeometry relative="1" as="geometry">
            <mxPoint x="611" y="955" as="sourcePoint" />
            <Array as="points">
              <mxPoint x="611" y="904" />
              <mxPoint x="611" y="1039" />
            </Array>
          </mxGeometry>
        </mxCell>
        <mxCell id="8jCZp9VK_VzVUnB_cPQP-22" value="&lt;span style=&quot;white-space: normal&quot;&gt;根据雪花算法生成Capcha Key&lt;/span&gt;" style="rounded=0;whiteSpace=wrap;html=1;absoluteArcSize=1;arcSize=14;strokeWidth=2;glass=0;comic=0;shadow=0;" vertex="1" parent="1">
          <mxGeometry x="561" y="853.5" width="100" height="100" as="geometry" />
        </mxCell>
        <mxCell id="8jCZp9VK_VzVUnB_cPQP-23" value="是" style="text;html=1;resizable=0;points=[];autosize=1;align=left;verticalAlign=top;spacingTop=-4;" vertex="1" parent="1">
          <mxGeometry x="510" y="881.5" width="22" height="14" as="geometry" />
        </mxCell>
        <mxCell id="8jCZp9VK_VzVUnB_cPQP-24" value="" style="edgeStyle=orthogonalEdgeStyle;rounded=0;orthogonalLoop=1;jettySize=auto;html=1;" edge="1" parent="1" source="8jCZp9VK_VzVUnB_cPQP-25" target="8jCZp9VK_VzVUnB_cPQP-27">
          <mxGeometry relative="1" as="geometry" />
        </mxCell>
        <mxCell id="8jCZp9VK_VzVUnB_cPQP-25" value="将Captcha Key保存到Cookie中，有效期十分钟" style="rounded=1;whiteSpace=wrap;html=1;absoluteArcSize=1;arcSize=14;strokeWidth=2;shadow=0;glass=0;comic=0;" vertex="1" parent="1">
          <mxGeometry x="363" y="999" width="100" height="100" as="geometry" />
        </mxCell>
        <mxCell id="8jCZp9VK_VzVUnB_cPQP-26" style="edgeStyle=orthogonalEdgeStyle;rounded=0;orthogonalLoop=1;jettySize=auto;html=1;exitX=0.5;exitY=1;exitDx=0;exitDy=0;" edge="1" parent="1" source="8jCZp9VK_VzVUnB_cPQP-27" target="8jCZp9VK_VzVUnB_cPQP-30">
          <mxGeometry relative="1" as="geometry" />
        </mxCell>
        <mxCell id="8jCZp9VK_VzVUnB_cPQP-27" value="获取验证码内容" style="rounded=1;whiteSpace=wrap;html=1;absoluteArcSize=1;arcSize=14;strokeWidth=2;shadow=0;glass=0;comic=0;" vertex="1" parent="1">
          <mxGeometry x="363" y="1149.5" width="100" height="100" as="geometry" />
        </mxCell>
        <mxCell id="8jCZp9VK_VzVUnB_cPQP-28" style="edgeStyle=orthogonalEdgeStyle;rounded=0;orthogonalLoop=1;jettySize=auto;html=1;exitX=0.5;exitY=1;exitDx=0;exitDy=0;exitPerimeter=0;" edge="1" parent="1" source="8jCZp9VK_VzVUnB_cPQP-30" target="8jCZp9VK_VzVUnB_cPQP-33">
          <mxGeometry relative="1" as="geometry">
            <mxPoint x="413" y="1448.6666870117188" as="targetPoint" />
          </mxGeometry>
        </mxCell>
        <mxCell id="8jCZp9VK_VzVUnB_cPQP-29" style="edgeStyle=orthogonalEdgeStyle;rounded=0;orthogonalLoop=1;jettySize=auto;html=1;exitX=1;exitY=0.5;exitDx=0;exitDy=0;exitPerimeter=0;" edge="1" parent="1" source="8jCZp9VK_VzVUnB_cPQP-30" target="8jCZp9VK_VzVUnB_cPQP-38">
          <mxGeometry relative="1" as="geometry" />
        </mxCell>
        <mxCell id="8jCZp9VK_VzVUnB_cPQP-30" value="验证码类型是否为四则运算类型？" style="strokeWidth=2;html=1;shape=mxgraph.flowchart.decision;whiteSpace=wrap;rounded=0;shadow=0;glass=0;comic=0;" vertex="1" parent="1">
          <mxGeometry x="363" y="1300" width="100" height="100" as="geometry" />
        </mxCell>
        <mxCell id="8jCZp9VK_VzVUnB_cPQP-31" style="edgeStyle=orthogonalEdgeStyle;rounded=0;orthogonalLoop=1;jettySize=auto;html=1;exitX=1;exitY=0.5;exitDx=0;exitDy=0;" edge="1" parent="1" source="8jCZp9VK_VzVUnB_cPQP-33" target="8jCZp9VK_VzVUnB_cPQP-42">
          <mxGeometry relative="1" as="geometry" />
        </mxCell>
        <mxCell id="8jCZp9VK_VzVUnB_cPQP-32" value="" style="edgeStyle=orthogonalEdgeStyle;rounded=0;orthogonalLoop=1;jettySize=auto;html=1;" edge="1" parent="1" source="8jCZp9VK_VzVUnB_cPQP-33" target="8jCZp9VK_VzVUnB_cPQP-35">
          <mxGeometry relative="1" as="geometry" />
        </mxCell>
        <mxCell id="8jCZp9VK_VzVUnB_cPQP-33" value="计算该四则运算表达式，将结果保存到Redis中" style="rounded=1;whiteSpace=wrap;html=1;absoluteArcSize=1;arcSize=14;strokeWidth=2;shadow=0;glass=0;comic=0;" vertex="1" parent="1">
          <mxGeometry x="363" y="1451" width="100" height="100" as="geometry" />
        </mxCell>
        <mxCell id="8jCZp9VK_VzVUnB_cPQP-34" value="" style="edgeStyle=orthogonalEdgeStyle;rounded=0;orthogonalLoop=1;jettySize=auto;html=1;" edge="1" parent="1" source="8jCZp9VK_VzVUnB_cPQP-35" target="8jCZp9VK_VzVUnB_cPQP-36">
          <mxGeometry relative="1" as="geometry" />
        </mxCell>
        <mxCell id="8jCZp9VK_VzVUnB_cPQP-35" value="设置响应类型为&quot;image/png&quot;" style="rounded=1;whiteSpace=wrap;html=1;absoluteArcSize=1;arcSize=14;strokeWidth=2;shadow=0;glass=0;comic=0;" vertex="1" parent="1">
          <mxGeometry x="363" y="1600.5" width="100" height="100" as="geometry" />
        </mxCell>
        <mxCell id="8jCZp9VK_VzVUnB_cPQP-36" value="获取输出流，将验证码写入输出流并关闭输出流" style="rounded=1;whiteSpace=wrap;html=1;absoluteArcSize=1;arcSize=14;strokeWidth=2;shadow=0;glass=0;comic=0;" vertex="1" parent="1">
          <mxGeometry x="363" y="1750" width="100" height="100" as="geometry" />
        </mxCell>
        <mxCell id="8jCZp9VK_VzVUnB_cPQP-37" style="edgeStyle=orthogonalEdgeStyle;rounded=0;orthogonalLoop=1;jettySize=auto;html=1;exitX=1;exitY=0.5;exitDx=0;exitDy=0;" edge="1" parent="1" source="8jCZp9VK_VzVUnB_cPQP-38" target="8jCZp9VK_VzVUnB_cPQP-41">
          <mxGeometry relative="1" as="geometry" />
        </mxCell>
        <mxCell id="8jCZp9VK_VzVUnB_cPQP-38" value="将验证码内容直接保存到Redis中" style="rounded=1;whiteSpace=wrap;html=1;absoluteArcSize=1;arcSize=14;strokeWidth=2;shadow=0;glass=0;comic=0;" vertex="1" parent="1">
          <mxGeometry x="534" y="1300" width="100" height="100" as="geometry" />
        </mxCell>
        <mxCell id="8jCZp9VK_VzVUnB_cPQP-39" value="是" style="text;html=1;resizable=0;points=[];autosize=1;align=left;verticalAlign=top;spacingTop=-4;" vertex="1" parent="1">
          <mxGeometry x="418" y="1414.5" width="22" height="14" as="geometry" />
        </mxCell>
        <mxCell id="8jCZp9VK_VzVUnB_cPQP-40" value="否" style="text;html=1;resizable=0;points=[];autosize=1;align=left;verticalAlign=top;spacingTop=-4;" vertex="1" parent="1">
          <mxGeometry x="487.5" y="1325.5" width="22" height="14" as="geometry" />
        </mxCell>
        <mxCell id="8jCZp9VK_VzVUnB_cPQP-41" value="key为Capcha Key,value为验证码内容" style="strokeWidth=2;html=1;shape=mxgraph.flowchart.document2;whiteSpace=wrap;size=0.25;rounded=0;shadow=0;glass=0;comic=0;" vertex="1" parent="1">
          <mxGeometry x="690.5" y="1310.5" width="102" height="79" as="geometry" />
        </mxCell>
        <mxCell id="8jCZp9VK_VzVUnB_cPQP-42" value="key为Capcha Key,value为计算后结果" style="strokeWidth=2;html=1;shape=mxgraph.flowchart.document2;whiteSpace=wrap;size=0.25;rounded=0;shadow=0;glass=0;comic=0;" vertex="1" parent="1">
          <mxGeometry x="534" y="1461.5" width="102" height="79" as="geometry" />
        </mxCell>
      </root>
    </mxGraphModel>
  </diagram>
</mxfile>
